<svg id="Capa_1" enable-background="new 0 0 497 497" height="512" viewBox="0 0 497 497" width="512" xmlns="http://www.w3.org/2000/svg"><g><path d="m349.925 1.622h-188.592l-51.061 97.586-94.482 47.957v290.301c0 32.88 26.654 59.534 59.534 59.534h274.601c32.88 0 59.534-26.654 59.534-59.534v-376.31c-.001-32.88-26.655-59.534-59.534-59.534z" fill="#eaeaea"/><path d="m161.333 1.622-51.061 97.586-94.482 47.957v30h80.727c52.282 0 94.816-42.534 94.816-94.816v-80.727z" fill="#e2e2e2"/><path d="m15.79 147.165h80.727c35.797 0 64.816-29.019 64.816-64.816v-80.727z" fill="#eaeaea"/><g><g fill="#ff6f7f"><path d="m110.61 241.645 17.076-17.076c2.929-2.929 2.929-7.678 0-10.607s-7.678-2.929-10.606 0l-17.076 17.076-17.076-17.076c-2.929-2.929-7.678-2.929-10.606 0-2.929 2.929-2.929 7.678 0 10.607l17.076 17.076-17.076 17.076c-2.929 2.929-2.929 7.678 0 10.606 2.927 2.928 7.678 2.93 10.606 0l17.076-17.076 17.076 17.076c2.927 2.928 7.678 2.93 10.606 0 2.929-2.929 2.929-7.678 0-10.606z"/><path d="m127.686 303.739c-2.929-2.929-7.678-2.929-10.606 0l-17.076 17.076-17.076-17.076c-2.929-2.929-7.678-2.928-10.606 0-2.929 2.929-2.929 7.678 0 10.607l17.076 17.076-17.076 17.076c-2.929 2.929-2.929 7.678 0 10.606 2.928 2.929 7.677 2.929 10.606 0l17.076-17.076 17.076 17.076c2.928 2.929 7.677 2.929 10.606 0s2.929-7.678 0-10.606l-17.076-17.076 17.076-17.076c2.929-2.929 2.929-7.678 0-10.607z"/><path d="m127.686 393.515c-2.929-2.929-7.678-2.929-10.606 0l-17.076 17.076-17.076-17.076c-2.929-2.929-7.678-2.929-10.606 0-2.929 2.929-2.929 7.678 0 10.607l17.076 17.076-17.076 17.076c-2.929 2.929-2.929 7.678 0 10.606 2.929 2.929 7.678 2.929 10.606 0l17.076-17.076 17.076 17.076c2.929 2.929 7.678 2.929 10.606 0 2.929-2.929 2.929-7.678 0-10.606l-17.076-17.076 17.076-17.076c2.929-2.929 2.929-7.678 0-10.607z"/></g></g><path d="m217.006 229.393c-9.613 9.613-9.613 25.198 0 34.811 9.613 9.613 25.198 9.613 34.811 0l37.5-37.5-34.811-34.811z" fill="#ff6f7f"/><path d="m469.526 35.297-23.616-23.616c-15.571-15.571-40.822-15.579-56.401 0l-118.637 118.637 9.136 70.881 70.881 9.136 118.637-118.636c15.579-15.579 15.579-40.823 0-56.402z" fill="#ff6f7f"/><g><path d="m350.89 338.922h-169.909c-4.142 0-7.5-3.358-7.5-7.5s3.358-7.5 7.5-7.5h169.909c4.142 0 7.5 3.358 7.5 7.5s-3.358 7.5-7.5 7.5z" fill="#6a647f"/></g><g><path d="m350.89 428.698h-169.909c-4.142 0-7.5-3.358-7.5-7.5s3.358-7.5 7.5-7.5h169.909c4.142 0 7.5 3.358 7.5 7.5s-3.358 7.5-7.5 7.5z" fill="#6a647f"/></g><path d="m465.111 30.882-19.201-19.201c-15.571-15.571-40.822-15.579-56.401 0l-118.637 118.637 9.136 70.881 17.718 2.284c17.996-84.829 83.516-152.085 167.385-172.601z" fill="#fc5c70"/><path d="m270.872 130.318-14.214 14.214c-14.903 14.903-22.721 35.471-21.47 56.508.718 12.117 5.906 22.991 13.951 31.036 8.038 8.038 18.919 13.233 31.036 13.951 21.241 1.25 41.728-6.705 56.5-21.477l14.214-14.214z" fill="#827f98"/><path d="m308.417 167.863-37.545-37.545-14.214 14.214c-14.903 14.903-22.721 35.471-21.47 56.508.718 12.117 5.906 22.991 13.951 31.036 8.038 8.038 18.919 13.233 31.036 13.951 4.269.251 8.504.113 12.672-.36.595-27.413 6.058-53.626 15.57-77.804z" fill="#77718c"/></g></svg>