<svg id="Capa_1" enable-background="new 0 0 512 512" height="512" viewBox="0 0 512 512" width="512" xmlns="http://www.w3.org/2000/svg"><g><g><g><path d="m504.5 256c0 16.054-17.613 30.169-20.615 45.342-3.093 15.634 7.721 35.396 1.756 49.781-6.069 14.636-27.749 20.936-36.459 33.945-8.776 13.108-6.353 35.535-17.467 46.65-11.114 11.114-33.541 8.691-46.649 17.467-13.009 8.709-19.309 30.39-33.945 36.458-14.384 5.965-34.146-4.849-49.78-1.757-15.173 3.001-29.288 20.614-45.341 20.614-16.054 0-30.169-17.613-45.342-20.615-15.634-3.093-35.396 7.721-49.781 1.756-14.636-6.069-20.936-27.75-33.945-36.459-13.108-8.776-35.535-6.353-46.65-17.467-11.114-11.114-8.691-33.541-17.467-46.649-8.709-13.009-30.39-19.309-36.458-33.945-5.965-14.384 4.849-34.146 1.757-49.78-3.001-15.172-20.614-29.287-20.614-45.341s17.613-30.169 20.615-45.342c3.093-15.634-7.721-35.396-1.756-49.781 6.069-14.636 27.749-20.936 36.459-33.945 8.776-13.108 6.353-35.535 17.467-46.649s33.541-8.691 46.649-17.467c13.009-8.709 19.309-30.39 33.945-36.458 14.384-5.965 34.146 4.849 49.78 1.756 15.172-3.001 29.287-20.614 45.341-20.614s30.169 17.613 45.342 20.615c15.634 3.093 35.396-7.721 49.781-1.756 14.636 6.069 20.936 27.749 33.945 36.459 13.108 8.776 35.535 6.353 46.65 17.467 11.114 11.114 8.691 33.541 17.467 46.649 8.709 13.009 30.39 19.309 36.458 33.945 5.965 14.384-4.849 34.146-1.757 49.78 3.001 15.172 20.614 29.287 20.614 45.341z" fill="#fe646f"/></g><g><path d="m483.885 301.342c3.002-15.173 20.615-29.288 20.615-45.342s-17.613-30.169-20.615-45.341c-3.092-15.634 7.721-35.396 1.757-49.78-6.069-14.635-27.749-20.936-36.458-33.945-8.776-13.108-6.353-35.535-17.467-46.649-7.566-7.566-20.374-8.86-31.917-11.683 26.345 38.579 41.76 85.215 41.76 135.456 0 132.826-107.676 240.502-240.502 240.502-48.377 0-93.409-14.295-131.127-38.876 2.105 9.808 4.057 19.735 10.353 26.032 11.114 11.114 33.541 8.691 46.65 17.467 13.009 8.709 19.309 30.39 33.945 36.458 14.385 5.965 34.146-4.849 49.781-1.756 15.171 3.002 29.286 20.615 45.34 20.615s30.169-17.613 45.341-20.615c15.634-3.092 35.396 7.721 49.78 1.757 14.636-6.069 20.936-27.749 33.945-36.458 13.108-8.776 35.535-6.353 46.649-17.467s8.691-33.541 17.467-46.649c8.709-13.009 30.39-19.309 36.459-33.945 5.965-14.385-4.848-34.147-1.756-49.781z" fill="#fd4755"/></g><g><circle cx="256" cy="256" fill="#f3eae6" r="195.559"/></g><g><path d="m378.46 103.54c26.957 33.518 43.099 76.101 43.099 122.46 0 108.004-87.555 195.559-195.559 195.559-46.36 0-88.943-16.142-122.46-43.099 35.844 44.567 90.816 73.099 152.46 73.099 108.004 0 195.559-87.555 195.559-195.559 0-61.645-28.531-116.616-73.099-152.46z" fill="#efe2dd"/></g><g><path d="m321.147 290.56s-16.818 0-36.561 32.174c-8.035 13.094-14.011 22.917-18.273 29.964-4.686 7.748-15.108 9.608-22.195 3.971l-5.062-4.027c-8.656-6.885-13.699-17.342-13.699-28.402v-20.037c0-5.516-4.472-9.987-9.987-9.987h-38.455c-21.183 0-36.493-20.249-30.721-40.63l17.743-62.642c3.892-13.742 16.438-23.228 30.721-23.228h126.489z" fill="#fed2a4"/></g><g><path d="m291.147 167.716v50.98c0 27.848-9.35 55.009-27.031 76.524-3.054 3.716-6.251 8.171-9.53 13.514-8.035 13.094-14.011 22.918-18.273 29.964-1.336 2.208-3.146 3.92-5.204 5.134 2.126 3.314 4.793 6.301 7.948 8.811l5.062 4.026c7.087 5.637 17.51 3.775 22.197-3.975 4.262-7.047 10.237-16.869 18.271-29.961 19.743-32.173 36.561-32.173 36.561-32.173v-122.844z" fill="#ffbd86"/></g><g><path d="m330.616 152.061h26.947c5.23 0 9.47 4.24 9.47 9.47v142.086c0 5.23-4.24 9.47-9.47 9.47h-26.947c-5.23 0-9.47-4.24-9.47-9.47v-142.086c.001-5.23 4.24-9.47 9.47-9.47z" fill="#fd8087"/></g><g><path d="m357.563 152.061h-10.53v125.556c0 5.23-4.24 9.47-9.47 9.47h-16.416v16.53c0 5.23 4.24 9.47 9.47 9.47h26.947c5.23 0 9.47-4.24 9.47-9.47v-142.086c-.001-5.23-4.241-9.47-9.471-9.47z" fill="#fe646f"/></g></g><g><path d="m374.533 303.617v-142.086c0-9.357-7.613-16.97-16.97-16.97h-26.947c-8.913 0-16.227 6.912-16.903 15.655h-64.557c-4.142 0-7.5 3.358-7.5 7.5s3.358 7.5 7.5 7.5h64.49v109.444c-8.005 2.918-21.325 11.127-35.454 34.151-6.93 11.293-13.086 21.388-18.298 30.005-1.133 1.873-2.942 3.117-5.096 3.503-2.155.386-4.294-.152-6.012-1.52l-5.062-4.026c-6.907-5.494-10.868-13.707-10.868-22.533v-20.037c0-9.643-7.845-17.487-17.487-17.487h-38.455c-7.725 0-14.827-3.534-19.486-9.696s-6.124-13.958-4.019-21.391l17.743-62.643c2.964-10.463 12.629-17.771 23.504-17.771h19.499c4.142 0 7.5-3.358 7.5-7.5s-3.358-7.5-7.5-7.5h-19.499c-17.553 0-33.153 11.795-37.937 28.684l-17.743 62.643c-3.397 11.996-1.033 24.58 6.486 34.525 7.52 9.945 18.983 15.649 31.451 15.649h38.455c1.372 0 2.487 1.116 2.487 2.487v20.037c0 13.424 6.025 25.916 16.53 34.272l5.062 4.026c4.017 3.195 8.972 4.898 14.026 4.898 1.322 0 2.651-.117 3.972-.354 6.365-1.142 11.935-4.97 15.283-10.504 5.195-8.589 11.335-18.657 18.248-29.923 9.002-14.67 17.093-21.826 22.668-25.314v2.274c0 9.357 7.612 16.97 16.969 16.97h26.947c9.36.001 16.973-7.611 16.973-16.968zm-45.886 0v-142.086c0-1.086.883-1.97 1.969-1.97h26.947c1.086 0 1.97.884 1.97 1.97v142.086c0 1.086-.884 1.97-1.97 1.97h-26.947c-1.086-.001-1.969-.884-1.969-1.97z"/><path d="m500.102 285.414c5.577-8.591 11.898-18.327 11.898-29.414s-6.321-20.823-11.898-29.413c-4.009-6.175-7.796-12.007-8.859-17.384-1.127-5.698.167-12.723 1.537-20.16 1.915-10.393 3.895-21.139-.21-31.038-4.187-10.097-13.289-16.344-22.092-22.386-6.141-4.214-11.94-8.195-15.062-12.858-3.171-4.737-4.654-11.669-6.225-19.008-2.222-10.384-4.52-21.121-12.171-28.772s-18.388-9.949-28.772-12.171c-7.339-1.571-14.271-3.054-19.008-6.226-4.663-3.121-8.644-8.921-12.858-15.062-6.042-8.803-12.289-17.906-22.387-22.093-9.898-4.104-20.645-2.124-31.038-.21-7.438 1.37-14.462 2.665-20.16 1.537-5.376-1.063-11.208-4.85-17.383-8.859-8.59-5.576-18.327-11.897-29.414-11.897s-20.824 6.321-29.414 11.898c-6.175 4.009-12.008 7.796-17.383 8.859-5.7 1.128-12.723-.167-20.16-1.538-10.393-1.914-21.139-3.894-31.037.21-10.097 4.187-16.345 13.289-22.387 22.093-4.214 6.14-8.195 11.94-12.858 15.062-4.737 3.171-11.669 4.655-19.008 6.226-10.384 2.222-21.121 4.52-28.772 12.171s-9.949 18.388-12.171 28.772c-1.57 7.339-3.054 14.271-6.225 19.008-3.121 4.663-8.921 8.644-15.062 12.858-8.803 6.042-17.906 12.29-22.093 22.386-4.104 9.898-2.125 20.645-.21 31.037 1.37 7.438 2.664 14.463 1.537 20.161-1.063 5.376-4.85 11.209-8.859 17.383-5.577 8.591-11.898 18.327-11.898 29.414s6.321 20.823 11.898 29.413c4.009 6.175 7.795 12.007 8.859 17.384 1.127 5.698-.167 12.723-1.537 20.16-1.915 10.393-3.895 21.139.21 31.038 4.187 10.096 13.289 16.344 22.092 22.386 6.141 4.215 11.94 8.196 15.062 12.858 3.171 4.737 4.655 11.669 6.226 19.008 2.222 10.384 4.519 21.121 12.17 28.772s18.388 9.949 28.772 12.171c7.339 1.571 14.271 3.054 19.008 6.226 4.662 3.121 8.644 8.921 12.858 15.062 6.042 8.803 12.289 17.906 22.387 22.093 9.899 4.104 20.646 2.125 31.038.21 7.438-1.37 14.463-2.665 20.16-1.537 5.376 1.064 11.208 4.85 17.384 8.859 8.589 5.576 18.326 11.897 29.413 11.897s20.823-6.321 29.413-11.898c6.175-4.009 12.008-7.796 17.383-8.859 5.699-1.126 12.723.167 20.16 1.538 10.393 1.914 21.139 3.893 31.037-.21 10.097-4.187 16.345-13.29 22.387-22.093 4.214-6.14 8.195-11.94 12.858-15.062 4.737-3.171 11.669-4.655 19.008-6.226 10.384-2.222 21.122-4.52 28.772-12.171 7.651-7.651 9.949-18.388 12.171-28.772 1.57-7.339 3.054-14.271 6.225-19.008 3.122-4.663 8.921-8.643 15.062-12.858 8.803-6.042 17.905-12.289 22.093-22.386 4.104-9.898 2.125-20.645.21-31.037-1.37-7.438-2.664-14.463-1.537-20.161 1.064-5.376 4.851-11.209 8.86-17.383zm-12.581-8.169c-4.606 7.095-9.369 14.431-10.993 22.641-1.683 8.509-.065 17.293 1.5 25.789 1.589 8.626 3.09 16.775.686 22.574-2.484 5.991-9.402 10.739-16.725 15.765-7.038 4.83-14.315 9.825-19.039 16.88-4.772 7.128-6.631 15.814-8.428 24.214-1.848 8.633-3.593 16.788-8.11 21.305s-12.671 6.262-21.305 8.11c-8.4 1.797-17.085 3.656-24.214 8.428-7.056 4.724-12.05 12.001-16.88 19.038-5.026 7.324-9.774 14.241-15.765 16.725-5.799 2.406-13.946.905-22.574-.686-8.495-1.565-17.279-3.184-25.789-1.5-8.21 1.624-15.546 6.387-22.641 10.993-7.507 4.875-14.599 9.479-21.244 9.479s-13.737-4.604-21.246-9.479c-7.095-4.606-14.431-9.369-22.641-10.993-2.56-.506-5.145-.714-7.74-.714-6.029 0-12.109 1.12-18.048 2.214-8.627 1.589-16.775 3.089-22.575.685-5.991-2.484-10.738-9.401-15.765-16.725-4.83-7.037-9.825-14.315-16.88-19.038-7.128-4.772-15.814-6.631-24.214-8.429-8.633-1.847-16.788-3.592-21.305-8.109s-6.262-12.671-8.109-21.304c-1.797-8.4-3.656-17.086-8.428-24.214-4.724-7.056-12.001-12.05-19.039-16.881-7.323-5.026-14.24-9.774-16.724-15.764-2.405-5.8-.904-13.948.685-22.574 1.565-8.496 3.184-17.28 1.5-25.789-1.624-8.21-6.387-15.547-10.993-22.641-4.873-7.508-9.478-14.6-9.478-21.245s4.605-13.737 9.479-21.245c4.606-7.095 9.369-14.431 10.993-22.641 1.683-8.509.065-17.294-1.5-25.789-1.589-8.627-3.09-16.774-.685-22.574 2.484-5.991 9.401-10.738 16.725-15.765 7.037-4.83 14.315-9.825 19.038-16.88 4.772-7.128 6.631-15.814 8.428-24.214 1.848-8.633 3.593-16.788 8.11-21.305 4.518-4.517 12.672-6.262 21.305-8.11 8.4-1.797 17.085-3.656 24.214-8.428 7.056-4.724 12.05-12.001 16.88-19.038 5.026-7.324 9.774-14.241 15.765-16.725 5.8-2.404 13.948-.903 22.574.686 8.496 1.565 17.279 3.184 25.789 1.5 8.21-1.624 15.546-6.387 22.641-10.993 7.507-4.875 14.599-9.479 21.244-9.479s13.737 4.604 21.245 9.479c7.095 4.606 14.431 9.369 22.641 10.993 8.509 1.683 17.293.065 25.788-1.5 8.627-1.589 16.775-3.089 22.575-.685 5.991 2.484 10.738 9.401 15.765 16.725 4.83 7.037 9.825 14.314 16.88 19.038 7.128 4.772 15.814 6.631 24.214 8.429 8.633 1.847 16.788 3.592 21.305 8.109 4.517 4.518 6.262 12.672 8.109 21.305 1.798 8.4 3.656 17.085 8.428 24.214 4.724 7.056 12.001 12.05 19.038 16.88 7.324 5.026 14.241 9.774 16.725 15.765 2.405 5.8.904 13.948-.685 22.574-1.565 8.496-3.184 17.28-1.5 25.789 1.624 8.21 6.387 15.547 10.993 22.642 4.875 7.508 9.479 14.6 9.479 21.245 0 6.643-4.604 13.735-9.479 21.243z"/><path d="m256 52.941c-111.967 0-203.06 91.092-203.06 203.059s91.093 203.059 203.06 203.059c23.205 0 45.965-3.884 67.65-11.544 3.906-1.379 5.953-5.664 4.574-9.57-1.379-3.905-5.663-5.954-9.57-4.574-20.075 7.091-41.155 10.687-62.654 10.687-103.696 0-188.06-84.363-188.06-188.059s84.364-188.058 188.06-188.058 188.059 84.363 188.059 188.059c0 33.45-8.891 66.293-25.711 94.979-16.332 27.855-39.698 51.191-67.573 67.488-3.576 2.091-4.78 6.684-2.689 10.26s6.685 4.78 10.26 2.689c30.088-17.592 55.311-42.783 72.941-72.85 18.168-30.985 27.771-66.452 27.771-102.567.001-111.966-91.091-203.058-203.058-203.058z"/></g></g></svg>